<?xml version="1.0" encoding="iso-8859-1"?>
<!-- Generator: Adobe Illustrator 16.0.0, SVG Export Plug-In . SVG Version: 6.00 Build 0)  -->
<!DOCTYPE svg PUBLIC "-//W3C//DTD SVG 1.1//EN" "http://www.w3.org/Graphics/SVG/1.1/DTD/svg11.dtd">
<svg fill="#A63E3E" version="1.1" id="Capa_1" xmlns="http://www.w3.org/2000/svg" xmlns:xlink="http://www.w3.org/1999/xlink" x="0px" y="0px"
	 width="102.244px" height="102.244px" viewBox="0 0 102.244 102.244" style="enable-background:new 0 0 102.244 102.244;"
	 xml:space="preserve">
<g>
	<path d="M67.91,22.268c0,1.182-0.958,2.14-2.141,2.14c-1.182,0-2.14-0.958-2.14-2.14c0-1.181,0.958-2.139,2.14-2.139
		C66.952,20.129,67.91,21.087,67.91,22.268z M86.263,64.323c0,0-4.209,4.765-4.209,7.09s1.885,4.209,4.209,4.209
		c2.323,0,4.208-1.884,4.208-4.209S86.263,64.323,86.263,64.323z M81.054,51.272c0-0.275,0.053-0.592,0.14-0.928l-0.598,0.792
		c-4.518,4.953-9.763,9.357-15.411,13.16c-6.76,5.708-14.417,10.68-22.66,13.483l-1.044,0.354l-8.594-6.193L8.914,93.376
		c-1.021,0.912-2.295,1.361-3.563,1.361c-1.47,0-2.932-0.602-3.989-1.784c-1.97-2.202-1.78-5.583,0.422-7.552L24,65.536
		l-0.793-0.572l-0.374-0.374l-1.295-1.446c-0.34-0.974-0.016-1.846,0.961-2.595c6.122-4.694,26.931-22.217,37.66-50.642l0.905-2.4
		l34.127,20.526l-1.073,1.826c-0.234,0.399-1.863,3.136-4.636,7.13c-0.557,1.412-1.225,2.84-1.276,4.067l-0.158,0.209
		c1.508,1.978,3.424,4.831,3.424,6.577c0,2.87-2.32,5.195-5.188,5.207c-0.475,1.155-1.383,1.948-2.438,1.948
		C82.304,54.997,81.054,53.329,81.054,51.272z M87.926,31.051c0.105,0.043,0.184,0.095,0.281,0.141
		c0.426-0.646,0.797-1.22,1.104-1.702L63.229,13.802C52.842,39.477,34.739,56.161,26.992,62.451l15.185,10.913
		c0.825-0.303,1.643-0.635,2.456-0.983c-2.938-2.415-6.056-5.431-7.095-9.124c-1.015-3.607,1.814-5.125,4.758-5.609
		c-0.032-1.84,0.58-3.495,2.752-4.191c1.29-0.414,7.281,1.906,7.401,1.531c0.478-1.484,1.806-2.133,3.29-1.868
		c3.008,0.536,2.474,1.636,1.69-1.038c-0.269-0.917-0.598-1.95-0.589-2.919c0.019-2.157,0.847-4.047,2.898-4.926
		c1.737-0.746,3.357-0.102,3.74-2.733c0.167-1.147,0.425-2.504,1.271-3.381c1.963-2.034,3.471-1.702,6.167-1.68
		c4.603,0.038,5.439-3.323,9.161-5.031C82.264,30.411,85.676,30.126,87.926,31.051z M95.963,71.437c0,0-6.281,7.111-6.281,10.582
		c0,3.469,2.813,6.281,6.281,6.281s6.281-2.812,6.281-6.281C102.244,78.548,95.963,71.437,95.963,71.437z"/>
</g>
<g>
</g>
<g>
</g>
<g>
</g>
<g>
</g>
<g>
</g>
<g>
</g>
<g>
</g>
<g>
</g>
<g>
</g>
<g>
</g>
<g>
</g>
<g>
</g>
<g>
</g>
<g>
</g>
<g>
</g>
</svg>
